# xmcd
#
# Track frame offsets: 
#        150
#        14722
#        30682
#        47157
#        68320
#        86460
#        101335
#        125140
#        139532
#        159210
#
# Disc length: 2367 seconds
#
# Revision: 0
# Processed by: cddbd v1.5.2PL0 Copyright (c) Steve Scherf et al.
# Submitted via: ExactAudioCopy v0.99pb3
#
DISCID=77093d0a
DTITLE=Dust and Ashes - The Dance Goes On
DYEAR=1900
DGENRE=Christian
TTITLE0=Lord of the Dance
TTITLE1=Love Can Build a Bridge
TTITLE2=Hero
TTITLE3=I Don't Know Him
TTITLE4=Whispering Hope - It is Well
TTITLE5=The Family's Gettin' Together
TTITLE6=Zlata's Song
TTITLE7=Mary, Did You Know?
TTITLE8=Sing of Christmas
TTITLE9=River of Jordan
EXTD=
EXTT0=
EXTT1=
EXTT2=
EXTT3=
EXTT4=
EXTT5=
EXTT6=
EXTT7=
EXTT8=
EXTT9=
PLAYORDER=
